<svg version="1.2" xmlns="http://www.w3.org/2000/svg" viewBox="0 0 1080 1080" width="1080" height="1080">
	<style>
		.s0 { fill: #fefefe } 
		.s1 { fill: #000000 } 
	</style>
	<path fill-rule="evenodd" class="s0" d="m0 0h1080v1080h-1080z"/>
	<g id="layer1">
		<g>
			<path class="s1" d="m786.24 208.34q-0.54 0-1.09 0.03c-7.69 0.44-16.7 5.56-26.02 11.68-2.43 1.6-4.92 3.28-7.37 4.95-2.48 1.68-4.96 3.36-7.43 4.98-14.32 9.4-28.19 16.67-42.08 22.1-13.88 5.42-27.77 8.99-41.66 12.57l-0.04 0.04c-0.26 1.19-0.52 2.38-0.56 3.53-0.04 1.12 0.14 2.19 0.31 3.26l0.01 0.05 0.04 0.04c10.56 1.54 21.12 3.09 36.33 10.81 15.22 7.72 35.08 21.61 43.19 34.01 8.11 12.39 4.48 23.3 0.84 34.23l-154.5 440.35c-8.51-6.42-17.03-12.84-29.69-20.06-12.66-7.23-29.48-15.26-46.29-23.29 9.95-14.98 19.91-29.95 32.9-42.35 6.49-6.19 13.73-11.73 20.24-16.72 6.54-5.02 12.35-9.47 15.9-13.43 7.11-7.92 5.23-13.91 3.35-19.89l-107.06-323.92c-2.07-6.64-4.13-13.27-2.92-18.55 1.21-5.28 5.7-9.23 10.2-13.2 14.42-12.13 28.83-24.25 40.3-35.16 11.46-10.91 19.97-20.6 28.48-30.28l-0.05-0.08c-20.12 7.48-40.23 14.96-67.43 14.96-10.95 0-23.04-1.21-36.75-4.12-13.47-2.86-28.49-7.36-44.25-12.08-31.22-9.35-65.31-19.56-95.84-19.56-8.71 0-17.13 0.83-25.11 2.75-50.08 12.05-82.83 66.94-96.03 95.59-5.94 12.92-7.92 20.51-7.92 24.82 0 3.9 1.63 5.13 3.41 5.13 0.62 0 1.25-0.15 1.83-0.38v0.01-0.01c1.8-0.7 3.15-2.18 4.76-4.61 0.84-1.26 1.75-2.79 2.83-4.6 1.58-2.66 3.53-5.93 6.15-9.89 7.86-11.87 21.79-29.96 47.4-31.53q1.89-0.12 3.87-0.12c19.24 0 43.95 8.01 65.09 15.57 3.54 1.26 6.92 2.5 10.22 3.7 3 1.09 5.94 2.16 8.67 3.14 24.82 8.88 37.22 11.71 49.6 14.53l-0.01 0.01c-27.06 28.83-54.12 57.68-62.97 84.81-2.25 6.9-3.32 13.68-3.68 20.21-0.61 10.89 0.76 21.06 1.95 29.86 0.9 6.71 1.7 12.62 1.43 17.43-0.53 9.52-5.21 14.77-11 19.24-1.62 1.24-3.33 2.44-5.06 3.64-1.77 1.23-3.57 2.47-5.31 3.82-9.52 7.34-17.52 17.55-25.52 27.76l0.03 0.08c23.57 1.47 47.11 2.94 65.92 21.45 18.82 18.52 32.91 54.1 44.15 85.63 11.23 31.52 19.6 58.96 9.58 86.83-10.03 27.87-38.45 56.18-66.89 84.5l-0.01 0.01c-0.46 1.15-0.94 2.3-0.85 3.18 0.08 0.86 0.72 1.44 1.35 2l0.02 0.02 0.04 0.01c25.28-3.55 50.55-7.1 75.21-7.1 14.91 0 29.58 1.29 43.9 4.67 37.92 8.95 73.32 32.5 108.72 56.09l0.27 0.18 0.06-0.01c22.76-22.71 45.52-45.42 64.63-61.66 19.1-16.24 34.55-26 50.01-35.77l0.01-0.07c-4.97-8.3-9.95-16.59-5.25-38.41 2.05-9.51 5.94-21.59 10.79-35.36 2.99-8.51 6.34-17.62 9.86-27.2 3.86-10.52 7.93-21.59 11.91-32.88q3.16-9 6.29-18.25c5.2-15.36 10.4-31.33 16.01-48.55 6.51-20 13.56-41.67 21.73-65.8 18.04-53.25 41.57-118.65 67.48-158.58 25.9-39.92 54.19-54.38 82.49-68.85v0.01c2.85-1.45 5.7-2.9 8.89-6.4 1.99-2.18 4.13-5.19 4.13-7.06 0-1.07-0.68-1.76-2.39-1.76q-0.18 0-0.36 0.01c-1.3 0.06-3.13 0.48-5.38 0.99-4.17 0.95-9.8 2.23-16.22 2.23-4.2 0-8.73-0.55-13.42-2.09-15.7-5.2-33.08-21.65-46.09-34.98-1.19-1.21-2.32-2.38-3.44-3.54-10.77-11.14-18.71-19.35-28.84-19.35zm0 0.09c10.08 0 17.99 8.17 28.77 19.33 1.15 1.18 2.23 2.3 3.44 3.54 13 13.33 30.4 29.79 46.13 35 4.7 1.55 9.24 2.1 13.45 2.1 6.43 0 12.07-1.28 16.24-2.23 2.25-0.52 4.07-0.93 5.36-1q0.19 0 0.36 0c1.67 0 2.3 0.66 2.3 1.66 0 1.83-2.12 4.81-4.11 7-3.18 3.48-6.02 4.92-8.87 6.37-28.3 14.46-56.6 28.93-82.52 68.88-25.92 39.94-49.45 105.35-67.49 158.6-8.17 24.14-15.22 45.79-21.73 65.8-5.61 17.22-10.81 33.19-16.01 48.55q-3.13 9.25-6.3 18.24c-3.97 11.3-8.04 22.36-11.9 32.88-3.52 9.58-6.87 18.7-9.87 27.2-4.84 13.77-8.73 25.86-10.78 35.38-4.7 21.82 0.26 30.14 5.24 38.44l-0.01 0.01c-15.44 9.75-30.88 19.52-49.98 35.75-19.1 16.23-41.85 38.93-64.6 61.64l-0.23-0.16c-35.4-23.59-70.82-47.15-108.76-56.1-14.32-3.38-29.01-4.68-43.92-4.68-24.66 0-49.93 3.55-75.2 7.1v0.01l-0.01-0.01c-0.63-0.57-1.23-1.12-1.31-1.94-0.09-0.84 0.37-1.97 0.84-3.12l-0.01 0.01c28.43-28.32 56.88-56.64 66.91-84.54 10.04-27.9 1.65-55.37-9.58-86.89-11.24-31.52-25.34-67.13-44.17-85.67-18.82-18.52-42.36-20-65.89-21.47 7.98-10.19 15.96-20.36 25.45-27.68 1.74-1.34 3.53-2.58 5.3-3.81 1.73-1.21 3.44-2.4 5.07-3.65 5.8-4.47 10.51-9.75 11.04-19.3 0.26-4.83-0.53-10.75-1.44-17.45-1.18-8.8-2.55-18.97-1.95-29.84 0.36-6.53 1.44-13.3 3.68-20.19 8.85-27.12 35.92-55.98 63.01-84.84l-0.02-0.08c-12.4-2.83-24.8-5.65-49.67-14.55-2.74-0.98-5.65-2.04-8.67-3.14q-4.93-1.8-10.22-3.7c-21.13-7.56-45.86-15.57-65.12-15.57q-1.98 0-3.87 0.11c-25.67 1.57-39.62 19.71-47.48 31.58-2.63 3.96-4.57 7.23-6.15 9.89-1.08 1.81-2 3.34-2.83 4.6-1.61 2.42-2.95 3.88-4.71 4.57h-0.01c-0.57 0.23-1.19 0.37-1.79 0.37-1.71 0-3.31-1.16-3.31-5.03 0-4.28 1.97-11.86 7.91-24.78 13.19-28.65 45.93-83.5 95.96-95.53 7.97-1.92 16.39-2.75 25.09-2.75 30.51 0 64.59 10.2 95.82 19.56 15.75 4.72 30.78 9.22 44.25 12.08 13.71 2.91 25.82 4.12 36.77 4.12 27.14 0 47.22-7.44 67.28-14.9-8.46 9.64-16.95 19.28-28.35 30.13-11.46 10.91-25.87 23.03-40.29 35.16-4.5 3.96-9.02 7.93-10.24 13.25-1.21 5.31 0.86 11.97 2.93 18.6l107.06 323.92v0.01c1.87 5.96 3.74 11.9-3.33 19.78-3.55 3.96-9.35 8.41-15.89 13.42-6.51 4.99-13.75 10.54-20.24 16.73-13.02 12.42-22.99 27.42-32.95 42.41l0.01 0.07c16.84 8.04 33.67 16.08 46.34 23.31 12.68 7.24 21.21 13.66 29.73 20.1l0.08-0.03 154.52-440.41c3.64-10.93 7.28-21.88-0.85-34.31-8.12-12.42-28.01-26.32-43.23-34.05-15.2-7.71-25.76-9.27-36.31-10.81h-0.01v-0.01-0.01c-0.18-1.06-0.35-2.13-0.31-3.24 0.04-1.12 0.29-2.3 0.55-3.48h-0.01c13.89-3.57 27.78-7.15 41.66-12.57 13.89-5.43 27.77-12.7 42.1-22.11 2.46-1.62 4.95-3.3 7.42-4.98 2.46-1.67 4.94-3.35 7.37-4.95 9.33-6.12 18.31-11.23 25.97-11.67h0.01q0.54-0.03 1.08-0.03z"/>
		</g>
		<g>
			<path class="s1" d="m786.24 208l-0.56 0.01q-6.67 0.21-15.89 5.19-43.96 29.22-57.26 34.16-16.72 8.1-52.31 17.25-1.11 4.2-0.05 7.24 31.31 1.98 68.05 32.17 18.34 14.78 15.86 32.75l-158.03 453.66q-21.06-18.15-75.33-42.95 24.57-41.62 68.8-72.14 5.13-5.17 5.13-12.48l-112.02-345.92q-0.17-7.11 5.07-12.1 54.31-44.95 74.07-70.89-47.86 18.25-78.95 14.3-14.68-1.03-32.21-5.25-87.75-25.95-101.78-27.1-34.69-5.87-56.72-0.23-58.53 12.66-101.7 109.12-6.23 20.09 3.66 16.47l19.28-27.16q4.47-5.82 10.85-11.2 12.96-11.5 34.29-12.16 11.85-0.51 37.37 6.48 77.75 27.76 95.56 30.32-46.17 46.85-60.07 77.71-5.03 11.23-6.17 25.46-1.64 6.51 3.32 46.46 0.04 7.53-2.61 12.26-1.09 2.59-5.54 6.91-19.86 14.32-22.22 17.95-8.53 9.05-16.53 19.78 35.89 2.86 45.94 8.44 18.29 9.08 24.67 18.34 28.33 34.28 52.22 125.27 5.54 28.13-9.61 55.8-7.97 13.97-20.03 28.05-18.38 21.09-40.37 42.45l-0.82 3.89q0.61 1.38 1.7 1.85 50.9-7.5 75.15-7.1 22.36-0.19 43.83 4.67 38.05 7.39 109.06 56.27 72.31-74.66 115-97.65-13.2-15.86-1.76-51.67 27.39-73.7 82.59-242.33 14.93-43.36 33-84.05 27.57-57.72 44.78-72.5 20.98-23.54 67.66-46.18 5.92-4.74 7.77-9.22 1.05-3.28-1.59-3.61-27.74 7.44-43.99-2.35l-19.96-14.21-36.22-34.66q-6.81-5.39-14.38-5.57z"/>
		</g>
		<g>
			<path class="s0" d="m435.35 321.12q-0.03 0-0.06 0.01c-8.14 2.62-16.29 5.23-27.29 13.19-10.98 7.94-24.84 21.23-30.01 35.6-5.18 14.38-1.63 29.79 1.88 45.13l0.01 0.02 62.13 189.39c6.21 19.75 12.4 39.43 8.41 60.99-3.99 21.57-18.17 45.03-32.38 68.54q-0.06 0.11-0.01 0.22 0.05 0.1 0.17 0.12c10.83 1.14 21.66 2.28 35.05 4.16 13.4 1.88 29.33 4.51 45.29 7.14q0.02 0 0.04 0 0.14-0.01 0.2-0.14c3.81-9.18 7.64-18.4 8.05-28.09 0.42-9.69-2.57-19.83-5.55-29.92v-0.01l-88.92-263.56v0.01c-5.87-18.29-11.71-36.49-7.86-53.53 3.85-17.04 17.41-32.94 31.02-48.9q0.1-0.13 0.02-0.27-0.07-0.09-0.19-0.1zm-0.67 0.67c-13.42 15.74-26.78 31.55-30.61 48.51-3.88 17.17 2.01 35.5 7.88 53.75v0.01l88.91 263.55c2.98 10.11 5.95 20.17 5.53 29.77-0.41 9.55-4.16 18.64-7.95 27.78v0.01c-15.9-2.62-31.78-5.24-45.13-7.12h-0.01c-13.24-1.86-23.99-3-34.71-4.12 14.14-23.4 28.27-46.83 32.26-68.4 4.02-21.69-2.22-41.47-8.42-61.2l-0.01-0.01-62.12-189.39c-3.53-15.36-7.02-30.63-1.9-44.86 5.12-14.24 18.9-27.47 29.86-35.39 10.61-7.68 18.55-10.36 26.42-12.89z"/>
		</g>
		<g>
			<path class="s0" d="m434.68 321.7h-0.03q-22.3 6.27-40.79 25.27-8.86 8.84-14.09 19.52-3.12 5.21-4.03 18.12-0.29 1.82 0.69 11.25 0.52 3.78 1.27 7.6l2.51 11.5 62.12 189.39q7.26 22.21 8.85 34.96 1.47 10.18 0.37 20.83 0.21 2.59-3.58 16.29-4.32 16.42-29.46 57.45 29.62 2.85 79.92 11.38 6.75-14.87 7.89-25.49 0.75-11.96-3.18-24.6l-2.19-7.59-88.91-263.56q-6.87-20.65-8.35-31.78-1.36-8.95-0.3-17.62-0.17-2.27 3.44-12.68 3.45-8.28 9.03-16.3l5.85-7.99z"/>
		</g>
	</g>
</svg>