<?xml version="1.0" encoding="utf-8"?>
<svg xmlns="http://www.w3.org/2000/svg" xmlns:xlink="http://www.w3.org/1999/xlink" version= "1.1" width="800px" height="800px" viewBox="-40 372 800 800">
<g id="layer1">
<g style="fill:rgb(0,0,0); fill-opacity:1.0; stroke-linejoin: miter">
<path d="M224.64645,544.6466L575.3535,544.6478L575.3535,544.6478L575.3535,1087.3536L575.3535,1087.3536L224.64645,1087.355L224.64645,1087.355L224.64645,544.6466 Z M224.0,543.35364C223.82852,543.35364,223.66412,543.42175,223.54288,543.54297C223.42166,543.6642,223.35355,543.8286,223.35355,544.0001L223.35355,1088.0015C223.35355,1088.1729,223.42166,1088.3373,223.54288,1088.4585C223.66412,1088.5797,223.82852,1088.6478,224.0,1088.6478L576.0,1088.6466C576.35706,1088.6466,576.6465,1088.3572,576.6465,1088.0001L576.6465,544.00134C576.6465,543.6444,576.35706,543.355,576.0,543.355L224.0,543.35364 Z"/>
</g>
<g style="fill:rgb(0,0,0); fill-opacity:1.0; stroke-linejoin: miter">
<path d="M256.64642,576.6465L543.3535,576.6478L543.3535,576.6478L543.3535,1055.3536L543.3535,1055.3536L256.64642,1055.355L256.64642,1055.355L256.64642,576.6465 Z M255.99997,575.35364C255.82852,575.35364,255.6641,575.42175,255.54288,575.54297C255.42163,575.6642,255.35352,575.8286,255.35352,576.0001L255.35352,1056.0013C255.35352,1056.1729,255.42163,1056.3373,255.54288,1056.4585C255.6641,1056.5797,255.82852,1056.6478,255.99997,1056.6478L544.0,1056.6466C544.35706,1056.6466,544.6465,1056.3572,544.6465,1056.0001L544.6465,576.00134C544.6465,575.6443,544.35706,575.35486,544.0,575.35486L255.99997,575.35364 Z"/>
</g>
<g style="fill:rgb(0,0,0); fill-opacity:1.0; stroke-linejoin: miter">
</g>
<g style="fill:rgb(0,0,0); fill-opacity:1.0; stroke-linejoin: miter">
<path d="M159.99997,479.81512L447.99997,479.8164C448.10214,479.8164,448.1848,479.89917,448.1848,480.0012L448.1848,960.0C448.1848,960.10223,448.10205,960.1848,447.99997,960.1848L159.99997,960.18604C159.95108,960.18604,159.90381,960.16644,159.86931,960.13196L159.86926,960.1319C159.83464,960.0973,159.81516,960.0504,159.81516,960.0012L159.81516,479.99997C159.81516,479.95087,159.83464,479.9039,159.86926,479.8693L159.86931,479.86923C159.90402,479.83453,159.95091,479.81512,159.99997,479.81512 Z M128.64645,448.1848C128.52402,448.1848,128.4066,448.23346,128.32002,448.32004C128.23344,448.40662,128.18481,448.52402,128.18481,448.64645L128.18481,991.35486C128.18481,991.4773,128.23344,991.5947,128.32002,991.6813C128.4066,991.7678,128.52402,991.8165,128.64645,991.8165L479.3535,991.81616C479.60843,991.81616,479.81512,991.60944,479.81512,991.3545L479.81512,991.3535L479.81512,448.64874L479.81512,448.64774C479.81512,448.3928,479.60843,448.1861,479.3535,448.1861L128.64645,448.1848 Z"/>
</g>
<g style="fill:rgb(0,0,0); fill-opacity:1.0; stroke-linejoin: miter">
<path d="M479.81512,544.4564C479.76443,544.4564,479.71582,544.47656,479.68,544.5124C479.64417,544.5482,479.62402,544.59686,479.62402,544.6475L479.62402,575.3546C479.62402,575.46014,479.7096,575.5457,479.81512,575.5457L544.0,575.54596C544.2515,575.54596,544.4554,575.74994,544.4554,576.00134L544.4554,1056.0001C544.4554,1056.2517,544.2515,1056.4554,544.0,1056.4554L255.99997,1056.4567C255.87936,1056.4567,255.76329,1056.4087,255.67801,1056.3234L255.678,1056.3234C255.5926,1056.238,255.54462,1056.1222,255.54462,1056.0013L255.54462,991.8174L255.54462,991.8164C255.54462,991.76575,255.52449,991.7171,255.48865,991.6813C255.4528,991.64545,255.4042,991.6253,255.35352,991.6253L224.64645,991.6263C224.54091,991.6263,224.45535,991.71185,224.45535,991.8174L224.45535,1087.355C224.45535,1087.4056,224.47548,1087.4542,224.51132,1087.4901C224.54716,1087.526,224.59576,1087.5461,224.64645,1087.5461L575.3535,1087.5448C575.45905,1087.5448,575.5446,1087.4592,575.5446,1087.3536L575.5446,544.6478C575.5446,544.5423,575.45905,544.4567,575.3535,544.4567L479.81512,544.4564 Z"/>
</g>
<g style="fill:rgb(0,0,0); fill-opacity:1.0; stroke-linejoin: miter">
<path d="M224.64645,544.3113C224.55751,544.3113,224.47221,544.3466,224.40933,544.4095C224.34645,544.47235,224.31111,544.5577,224.31111,544.6466L224.31111,960.1858C224.31111,960.371,224.46124,960.5211,224.64644,960.5211L255.3535,960.5219C255.44244,960.5219,255.52774,960.4866,255.59064,960.4237C255.65353,960.36084,255.68886,960.2755,255.68886,960.1866L255.68886,960.1856L255.68886,576.0001C255.68886,575.9175,255.72163,575.8384,255.77997,575.7801L255.78,575.7801C255.83835,575.72174,255.91745,575.68896,255.99997,575.68896L448.1848,575.69073C448.27374,575.69073,448.35904,575.6554,448.42194,575.5925C448.48483,575.52966,448.52014,575.44434,448.52014,575.3554L448.52014,575.35443L448.52014,544.6484L448.52014,544.6474C448.52014,544.4622,448.37003,544.3121,448.1848,544.3121L224.64645,544.3113 Z"/>
</g>
</g>
<g id="layer2">
</g>
</svg>